<mxfile host="app.diagrams.net" modified="2024-05-23T08:49:53.334Z" agent="Mozilla/5.0 (Macintosh; Intel Mac OS X 10_15_7) AppleWebKit/537.36 (KHTML, like Gecko) Chrome/124.0.0.0 Safari/537.36" etag="36nKaqFduxEORJc3wZc3" version="24.2.5" type="github">
  <diagram name="第 1 页" id="gl3o0vzwJRVeVN5r8qnD">
    <mxGraphModel dx="1307" dy="827" grid="1" gridSize="10" guides="1" tooltips="1" connect="1" arrows="1" fold="1" page="1" pageScale="1" pageWidth="827" pageHeight="1169" math="0" shadow="0">
      <root>
        <mxCell id="0" />
        <mxCell id="1" parent="0" />
        <mxCell id="4pzepJzCOBk05uDQuD7J-178" value="" style="edgeStyle=orthogonalEdgeStyle;rounded=0;orthogonalLoop=1;jettySize=auto;html=1;" edge="1" parent="1" source="4pzepJzCOBk05uDQuD7J-166" target="4pzepJzCOBk05uDQuD7J-177">
          <mxGeometry relative="1" as="geometry" />
        </mxCell>
        <mxCell id="4pzepJzCOBk05uDQuD7J-204" value="" style="edgeStyle=orthogonalEdgeStyle;rounded=0;orthogonalLoop=1;jettySize=auto;html=1;" edge="1" parent="1" source="4pzepJzCOBk05uDQuD7J-166" target="4pzepJzCOBk05uDQuD7J-203">
          <mxGeometry relative="1" as="geometry" />
        </mxCell>
        <mxCell id="4pzepJzCOBk05uDQuD7J-166" value="&lt;font style=&quot;font-size: 18px;&quot;&gt;文档切片&lt;/font&gt;" style="rounded=1;whiteSpace=wrap;html=1;strokeWidth=2;fillWeight=4;hachureGap=8;hachureAngle=45;fillColor=#d5e8d4;sketch=1;strokeColor=#82b366;" vertex="1" parent="1">
          <mxGeometry x="90" y="290" width="120" height="60" as="geometry" />
        </mxCell>
        <mxCell id="4pzepJzCOBk05uDQuD7J-180" value="" style="edgeStyle=orthogonalEdgeStyle;rounded=0;orthogonalLoop=1;jettySize=auto;html=1;" edge="1" parent="1" source="4pzepJzCOBk05uDQuD7J-177" target="4pzepJzCOBk05uDQuD7J-179">
          <mxGeometry relative="1" as="geometry" />
        </mxCell>
        <mxCell id="4pzepJzCOBk05uDQuD7J-206" style="edgeStyle=orthogonalEdgeStyle;rounded=0;orthogonalLoop=1;jettySize=auto;html=1;exitX=0.5;exitY=1;exitDx=0;exitDy=0;entryX=0.5;entryY=0;entryDx=0;entryDy=0;" edge="1" parent="1" source="4pzepJzCOBk05uDQuD7J-177" target="4pzepJzCOBk05uDQuD7J-205">
          <mxGeometry relative="1" as="geometry" />
        </mxCell>
        <mxCell id="4pzepJzCOBk05uDQuD7J-177" value="&lt;span style=&quot;font-size: 18px;&quot;&gt;文档过滤&lt;/span&gt;" style="whiteSpace=wrap;html=1;fillColor=#d5e8d4;strokeColor=#82b366;rounded=1;strokeWidth=2;fillWeight=4;hachureGap=8;hachureAngle=45;sketch=1;" vertex="1" parent="1">
          <mxGeometry x="290" y="290" width="120" height="60" as="geometry" />
        </mxCell>
        <mxCell id="4pzepJzCOBk05uDQuD7J-182" value="" style="edgeStyle=orthogonalEdgeStyle;rounded=0;orthogonalLoop=1;jettySize=auto;html=1;" edge="1" parent="1" source="4pzepJzCOBk05uDQuD7J-179" target="4pzepJzCOBk05uDQuD7J-181">
          <mxGeometry relative="1" as="geometry" />
        </mxCell>
        <mxCell id="4pzepJzCOBk05uDQuD7J-208" value="" style="edgeStyle=orthogonalEdgeStyle;rounded=0;orthogonalLoop=1;jettySize=auto;html=1;" edge="1" parent="1" source="4pzepJzCOBk05uDQuD7J-179" target="4pzepJzCOBk05uDQuD7J-207">
          <mxGeometry relative="1" as="geometry" />
        </mxCell>
        <mxCell id="4pzepJzCOBk05uDQuD7J-179" value="&lt;span style=&quot;font-size: 18px;&quot;&gt;关键词提取&lt;/span&gt;" style="whiteSpace=wrap;html=1;fillColor=#d5e8d4;strokeColor=#82b366;rounded=1;strokeWidth=2;fillWeight=4;hachureGap=8;hachureAngle=45;sketch=1;" vertex="1" parent="1">
          <mxGeometry x="490" y="290" width="120" height="60" as="geometry" />
        </mxCell>
        <mxCell id="4pzepJzCOBk05uDQuD7J-184" value="" style="edgeStyle=orthogonalEdgeStyle;rounded=0;orthogonalLoop=1;jettySize=auto;html=1;" edge="1" parent="1" source="4pzepJzCOBk05uDQuD7J-181" target="4pzepJzCOBk05uDQuD7J-183">
          <mxGeometry relative="1" as="geometry" />
        </mxCell>
        <mxCell id="4pzepJzCOBk05uDQuD7J-212" value="" style="edgeStyle=orthogonalEdgeStyle;rounded=0;orthogonalLoop=1;jettySize=auto;html=1;" edge="1" parent="1" source="4pzepJzCOBk05uDQuD7J-181" target="4pzepJzCOBk05uDQuD7J-211">
          <mxGeometry relative="1" as="geometry" />
        </mxCell>
        <mxCell id="4pzepJzCOBk05uDQuD7J-181" value="&lt;span style=&quot;font-size: 18px;&quot;&gt;问题生成&lt;/span&gt;" style="whiteSpace=wrap;html=1;fillColor=#d5e8d4;strokeColor=#82b366;rounded=1;strokeWidth=2;fillWeight=4;hachureGap=8;hachureAngle=45;sketch=1;" vertex="1" parent="1">
          <mxGeometry x="690" y="290" width="120" height="60" as="geometry" />
        </mxCell>
        <mxCell id="4pzepJzCOBk05uDQuD7J-186" value="" style="edgeStyle=orthogonalEdgeStyle;rounded=0;orthogonalLoop=1;jettySize=auto;html=1;" edge="1" parent="1" source="4pzepJzCOBk05uDQuD7J-183" target="4pzepJzCOBk05uDQuD7J-185">
          <mxGeometry relative="1" as="geometry" />
        </mxCell>
        <mxCell id="4pzepJzCOBk05uDQuD7J-240" value="" style="edgeStyle=orthogonalEdgeStyle;rounded=0;orthogonalLoop=1;jettySize=auto;html=1;" edge="1" parent="1" source="4pzepJzCOBk05uDQuD7J-183" target="4pzepJzCOBk05uDQuD7J-239">
          <mxGeometry relative="1" as="geometry" />
        </mxCell>
        <mxCell id="4pzepJzCOBk05uDQuD7J-183" value="&lt;span style=&quot;font-size: 18px;&quot;&gt;问题过滤&lt;/span&gt;" style="whiteSpace=wrap;html=1;fillColor=#d5e8d4;strokeColor=#82b366;rounded=1;strokeWidth=2;fillWeight=4;hachureGap=8;hachureAngle=45;sketch=1;" vertex="1" parent="1">
          <mxGeometry x="890" y="290" width="120" height="60" as="geometry" />
        </mxCell>
        <mxCell id="4pzepJzCOBk05uDQuD7J-188" value="" style="edgeStyle=orthogonalEdgeStyle;rounded=0;orthogonalLoop=1;jettySize=auto;html=1;" edge="1" parent="1" source="4pzepJzCOBk05uDQuD7J-185" target="4pzepJzCOBk05uDQuD7J-187">
          <mxGeometry relative="1" as="geometry" />
        </mxCell>
        <mxCell id="4pzepJzCOBk05uDQuD7J-243" value="" style="edgeStyle=orthogonalEdgeStyle;rounded=0;orthogonalLoop=1;jettySize=auto;html=1;" edge="1" parent="1" source="4pzepJzCOBk05uDQuD7J-185" target="4pzepJzCOBk05uDQuD7J-241">
          <mxGeometry relative="1" as="geometry" />
        </mxCell>
        <mxCell id="4pzepJzCOBk05uDQuD7J-185" value="&lt;span style=&quot;font-size: 18px;&quot;&gt;答案生成&lt;/span&gt;" style="whiteSpace=wrap;html=1;fillColor=#d5e8d4;strokeColor=#82b366;rounded=1;strokeWidth=2;fillWeight=4;hachureGap=8;hachureAngle=45;sketch=1;" vertex="1" parent="1">
          <mxGeometry x="1090" y="290" width="120" height="60" as="geometry" />
        </mxCell>
        <mxCell id="4pzepJzCOBk05uDQuD7J-190" value="" style="edgeStyle=orthogonalEdgeStyle;rounded=0;orthogonalLoop=1;jettySize=auto;html=1;" edge="1" parent="1" source="4pzepJzCOBk05uDQuD7J-187" target="4pzepJzCOBk05uDQuD7J-189">
          <mxGeometry relative="1" as="geometry" />
        </mxCell>
        <mxCell id="4pzepJzCOBk05uDQuD7J-245" value="" style="edgeStyle=orthogonalEdgeStyle;rounded=0;orthogonalLoop=1;jettySize=auto;html=1;" edge="1" parent="1" source="4pzepJzCOBk05uDQuD7J-187" target="4pzepJzCOBk05uDQuD7J-244">
          <mxGeometry relative="1" as="geometry" />
        </mxCell>
        <mxCell id="4pzepJzCOBk05uDQuD7J-187" value="&lt;span style=&quot;font-size: 18px;&quot;&gt;答案过滤&lt;/span&gt;" style="whiteSpace=wrap;html=1;fillColor=#d5e8d4;strokeColor=#82b366;rounded=1;strokeWidth=2;fillWeight=4;hachureGap=8;hachureAngle=45;sketch=1;" vertex="1" parent="1">
          <mxGeometry x="1290" y="290" width="120" height="60" as="geometry" />
        </mxCell>
        <mxCell id="4pzepJzCOBk05uDQuD7J-247" value="" style="edgeStyle=orthogonalEdgeStyle;rounded=0;orthogonalLoop=1;jettySize=auto;html=1;" edge="1" parent="1" source="4pzepJzCOBk05uDQuD7J-189" target="4pzepJzCOBk05uDQuD7J-246">
          <mxGeometry relative="1" as="geometry" />
        </mxCell>
        <mxCell id="4pzepJzCOBk05uDQuD7J-250" style="edgeStyle=orthogonalEdgeStyle;rounded=0;orthogonalLoop=1;jettySize=auto;html=1;entryX=0.5;entryY=0;entryDx=0;entryDy=0;" edge="1" parent="1" source="4pzepJzCOBk05uDQuD7J-189" target="4pzepJzCOBk05uDQuD7J-181">
          <mxGeometry relative="1" as="geometry">
            <Array as="points">
              <mxPoint x="1550" y="250" />
              <mxPoint x="750" y="250" />
            </Array>
          </mxGeometry>
        </mxCell>
        <mxCell id="4pzepJzCOBk05uDQuD7J-189" value="&lt;span style=&quot;font-size: 18px;&quot;&gt;问答对多样性&lt;/span&gt;" style="whiteSpace=wrap;html=1;fillColor=#d5e8d4;strokeColor=#82b366;rounded=1;strokeWidth=2;fillWeight=4;hachureGap=8;hachureAngle=45;sketch=1;" vertex="1" parent="1">
          <mxGeometry x="1490" y="290" width="120" height="60" as="geometry" />
        </mxCell>
        <mxCell id="4pzepJzCOBk05uDQuD7J-192" value="数据生产Pipline" style="text;strokeColor=none;fillColor=none;html=1;fontSize=24;fontStyle=1;verticalAlign=middle;align=center;" vertex="1" parent="1">
          <mxGeometry x="797" y="140" width="100" height="40" as="geometry" />
        </mxCell>
        <mxCell id="4pzepJzCOBk05uDQuD7J-203" value="&lt;font style=&quot;font-size: 18px;&quot;&gt;docx、pdf切片，形成文档chunk&lt;/font&gt;" style="rounded=1;whiteSpace=wrap;html=1;strokeWidth=2;fillWeight=4;hachureGap=8;hachureAngle=45;sketch=1;" vertex="1" parent="1">
          <mxGeometry x="90" y="390" width="120" height="100" as="geometry" />
        </mxCell>
        <mxCell id="4pzepJzCOBk05uDQuD7J-256" style="edgeStyle=orthogonalEdgeStyle;rounded=0;orthogonalLoop=1;jettySize=auto;html=1;entryX=0;entryY=0.5;entryDx=0;entryDy=0;" edge="1" parent="1" source="4pzepJzCOBk05uDQuD7J-205" target="4pzepJzCOBk05uDQuD7J-251">
          <mxGeometry relative="1" as="geometry">
            <Array as="points">
              <mxPoint x="350" y="625" />
            </Array>
          </mxGeometry>
        </mxCell>
        <mxCell id="4pzepJzCOBk05uDQuD7J-205" value="&lt;span style=&quot;font-size: 18px;&quot;&gt;正则/PPL过滤没有实际意义的文档&lt;/span&gt;" style="rounded=1;whiteSpace=wrap;html=1;strokeWidth=2;fillWeight=4;hachureGap=8;hachureAngle=45;sketch=1;" vertex="1" parent="1">
          <mxGeometry x="290" y="390" width="120" height="100" as="geometry" />
        </mxCell>
        <mxCell id="4pzepJzCOBk05uDQuD7J-207" value="&lt;span style=&quot;font-size: 18px;&quot;&gt;提取文档chunk中的实体关键词&lt;/span&gt;" style="rounded=1;whiteSpace=wrap;html=1;strokeWidth=2;fillWeight=4;hachureGap=8;hachureAngle=45;sketch=1;" vertex="1" parent="1">
          <mxGeometry x="490" y="390" width="120" height="100" as="geometry" />
        </mxCell>
        <mxCell id="4pzepJzCOBk05uDQuD7J-211" value="&lt;span style=&quot;font-size: 18px;&quot;&gt;设计问题类型，提示模型根据关键词产生问题&lt;/span&gt;" style="rounded=1;whiteSpace=wrap;html=1;strokeWidth=2;fillWeight=4;hachureGap=8;hachureAngle=45;sketch=1;" vertex="1" parent="1">
          <mxGeometry x="690" y="390" width="120" height="100" as="geometry" />
        </mxCell>
        <mxCell id="4pzepJzCOBk05uDQuD7J-257" style="edgeStyle=orthogonalEdgeStyle;rounded=0;orthogonalLoop=1;jettySize=auto;html=1;" edge="1" parent="1" source="4pzepJzCOBk05uDQuD7J-239" target="4pzepJzCOBk05uDQuD7J-251">
          <mxGeometry relative="1" as="geometry" />
        </mxCell>
        <mxCell id="4pzepJzCOBk05uDQuD7J-239" value="&lt;span style=&quot;font-size: 18px;&quot;&gt;设计问题类型，提示模型根据关键词产生问题&lt;/span&gt;" style="rounded=1;whiteSpace=wrap;html=1;strokeWidth=2;fillWeight=4;hachureGap=8;hachureAngle=45;sketch=1;" vertex="1" parent="1">
          <mxGeometry x="890" y="390" width="120" height="100" as="geometry" />
        </mxCell>
        <mxCell id="4pzepJzCOBk05uDQuD7J-241" value="&lt;span style=&quot;font-size: 18px;&quot;&gt;提示模型根据文档chunk回答问题&lt;/span&gt;" style="rounded=1;whiteSpace=wrap;html=1;strokeWidth=2;fillWeight=4;hachureGap=8;hachureAngle=45;sketch=1;" vertex="1" parent="1">
          <mxGeometry x="1090" y="390" width="120" height="100" as="geometry" />
        </mxCell>
        <mxCell id="4pzepJzCOBk05uDQuD7J-261" style="edgeStyle=orthogonalEdgeStyle;rounded=0;orthogonalLoop=1;jettySize=auto;html=1;entryX=1;entryY=0.5;entryDx=0;entryDy=0;" edge="1" parent="1" source="4pzepJzCOBk05uDQuD7J-244" target="4pzepJzCOBk05uDQuD7J-251">
          <mxGeometry relative="1" as="geometry">
            <Array as="points">
              <mxPoint x="1350" y="625" />
            </Array>
          </mxGeometry>
        </mxCell>
        <mxCell id="4pzepJzCOBk05uDQuD7J-244" value="&lt;span style=&quot;font-size: 18px;&quot;&gt;拒答过滤&lt;/span&gt;&lt;div&gt;&lt;span style=&quot;font-size: 18px;&quot;&gt;归因性过滤&lt;/span&gt;&lt;/div&gt;" style="rounded=1;whiteSpace=wrap;html=1;strokeWidth=2;fillWeight=4;hachureGap=8;hachureAngle=45;sketch=1;" vertex="1" parent="1">
          <mxGeometry x="1290" y="390" width="120" height="100" as="geometry" />
        </mxCell>
        <mxCell id="4pzepJzCOBk05uDQuD7J-246" value="&lt;span style=&quot;font-size: 18px;&quot;&gt;对问题进行口语化处理，重复问题、答案生成过程&lt;/span&gt;" style="rounded=1;whiteSpace=wrap;html=1;strokeWidth=2;fillWeight=4;hachureGap=8;hachureAngle=45;sketch=1;" vertex="1" parent="1">
          <mxGeometry x="1490" y="390" width="120" height="100" as="geometry" />
        </mxCell>
        <mxCell id="4pzepJzCOBk05uDQuD7J-251" value="&lt;span style=&quot;font-size: 18px;&quot;&gt;RAG数据质检&lt;/span&gt;" style="shape=parallelogram;perimeter=parallelogramPerimeter;whiteSpace=wrap;html=1;fixedSize=1;rounded=1;strokeWidth=2;fillWeight=4;hachureGap=8;hachureAngle=45;sketch=1;fillColor=#f8cecc;strokeColor=#b85450;" vertex="1" parent="1">
          <mxGeometry x="750" y="590" width="160" height="70" as="geometry" />
        </mxCell>
      </root>
    </mxGraphModel>
  </diagram>
</mxfile>
